<svg xmlns="http://www.w3.org/2000/svg" width="11.206" height="14" viewBox="0 0 11.206 14">
  <path id="Path_3" data-name="Path 3" d="M60,12.1l-.8-9.027a.386.386,0,0,0-.384-.352H57.169a2.766,2.766,0,0,0-5.531,0H49.988a.384.384,0,0,0-.384.352L48.8,12.1c0,.011,0,.023,0,.034A2,2,0,0,0,50.9,14h7a2,2,0,0,0,2.1-1.864A.139.139,0,0,0,60,12.1ZM54.4.773A2,2,0,0,1,56.4,2.723H52.41A2,2,0,0,1,54.4.773Zm3.5,12.454h-7a1.233,1.233,0,0,1-1.328-1.074L50.34,3.5h1.294V4.672a.387.387,0,1,0,.773,0V3.5H56.4V4.672a.387.387,0,0,0,.773,0V3.5h1.294l.77,8.655A1.235,1.235,0,0,1,57.9,13.227Z" transform="translate(-48.8)" fill="#f2f1ef"/>
</svg>
