<svg xmlns="http://www.w3.org/2000/svg" width="15.847" height="14" viewBox="0 0 15.847 14">
  <path id="Path_1" data-name="Path 1" d="M14.691,31.211a3.991,3.991,0,0,0-6.373.459,6.076,6.076,0,0,0-.394.64,6.071,6.071,0,0,0-.394-.64,3.991,3.991,0,0,0-6.373-.459A4.8,4.8,0,0,0,0,34.4a5.882,5.882,0,0,0,1.62,3.86A36.069,36.069,0,0,0,5.675,42.05c.613.523,1.247,1.063,1.923,1.654l.02.018a.464.464,0,0,0,.612,0l.02-.018c.675-.591,1.309-1.131,1.923-1.654a36.064,36.064,0,0,0,4.055-3.788,5.882,5.882,0,0,0,1.62-3.86A4.8,4.8,0,0,0,14.691,31.211ZM9.57,41.343c-.529.45-1.073.914-1.646,1.413-.574-.5-1.118-.962-1.646-1.413C3.056,38.6.929,36.785.929,34.4a3.877,3.877,0,0,1,.924-2.577,3.1,3.1,0,0,1,2.357-1.061,3.13,3.13,0,0,1,2.562,1.442,5.5,5.5,0,0,1,.711,1.413.464.464,0,0,0,.883,0,5.5,5.5,0,0,1,.711-1.413,3.064,3.064,0,0,1,4.919-.381,3.877,3.877,0,0,1,.924,2.577C14.918,36.785,12.791,38.6,9.57,41.343Z" transform="translate(0 -29.836)" fill="#f2f1ef"/>
</svg>
